<mxfile host="app.diagrams.net" agent="Mozilla/5.0 (Windows NT 10.0; Win64; x64) AppleWebKit/537.36 (KHTML, like Gecko) Chrome/133.0.0.0 Safari/537.36" version="26.1.0">
  <diagram name="Страница — 1" id="cFrO4RC-__C-4WR7WP5O">
    <mxGraphModel dx="794" dy="724" grid="1" gridSize="10" guides="1" tooltips="1" connect="1" arrows="1" fold="1" page="1" pageScale="1" pageWidth="827" pageHeight="1169" math="0" shadow="0">
      <root>
        <mxCell id="0" />
        <mxCell id="1" parent="0" />
        <mxCell id="USut6fKwZreLoNnX3Hr3-1" value="Пользователь" style="shape=umlActor;verticalLabelPosition=bottom;verticalAlign=top;html=1;outlineConnect=0;" vertex="1" parent="1">
          <mxGeometry x="383" y="320" width="74" height="120" as="geometry" />
        </mxCell>
        <mxCell id="USut6fKwZreLoNnX3Hr3-3" value="посмотреть фильм" style="ellipse;whiteSpace=wrap;html=1;aspect=fixed;" vertex="1" parent="1">
          <mxGeometry x="510" y="210" width="80" height="80" as="geometry" />
        </mxCell>
        <mxCell id="USut6fKwZreLoNnX3Hr3-4" value="выбрать фильм" style="ellipse;whiteSpace=wrap;html=1;aspect=fixed;" vertex="1" parent="1">
          <mxGeometry x="380" y="210" width="80" height="80" as="geometry" />
        </mxCell>
        <mxCell id="USut6fKwZreLoNnX3Hr3-5" value="выбрать жанр фильма или сериала" style="ellipse;whiteSpace=wrap;html=1;aspect=fixed;" vertex="1" parent="1">
          <mxGeometry x="250" y="210" width="80" height="80" as="geometry" />
        </mxCell>
        <mxCell id="USut6fKwZreLoNnX3Hr3-6" value="зарегистроваться" style="ellipse;whiteSpace=wrap;html=1;aspect=fixed;align=center;" vertex="1" parent="1">
          <mxGeometry x="250" y="350" width="80" height="80" as="geometry" />
        </mxCell>
        <mxCell id="USut6fKwZreLoNnX3Hr3-7" value="обратиться в службу поддержки" style="ellipse;whiteSpace=wrap;html=1;aspect=fixed;" vertex="1" parent="1">
          <mxGeometry x="250" y="490" width="80" height="80" as="geometry" />
        </mxCell>
        <mxCell id="USut6fKwZreLoNnX3Hr3-8" value="оценить фильм" style="ellipse;whiteSpace=wrap;html=1;aspect=fixed;" vertex="1" parent="1">
          <mxGeometry x="510" y="350" width="80" height="80" as="geometry" />
        </mxCell>
        <mxCell id="USut6fKwZreLoNnX3Hr3-9" value="добавить фильм в избранное" style="ellipse;whiteSpace=wrap;html=1;aspect=fixed;" vertex="1" parent="1">
          <mxGeometry x="510" y="490" width="80" height="80" as="geometry" />
        </mxCell>
        <mxCell id="USut6fKwZreLoNnX3Hr3-11" value="купить подписку" style="ellipse;whiteSpace=wrap;html=1;aspect=fixed;" vertex="1" parent="1">
          <mxGeometry x="380" y="490" width="80" height="80" as="geometry" />
        </mxCell>
      </root>
    </mxGraphModel>
  </diagram>
</mxfile>
